<svg width="24" height="24" viewBox="0 0 24 24" fill="none" xmlns="http://www.w3.org/2000/svg">
<path d="M12.2355 18.8585L12.4565 18.6375C12.603 18.4911 12.603 18.2537 12.4565 18.1072L6.87858 12.5293H18.625C18.8321 12.5293 19 12.3614 19 12.1543V11.8418C19 11.6347 18.8321 11.4668 18.625 11.4668H6.87858L12.4565 5.88882C12.603 5.74238 12.603 5.50494 12.4565 5.35848L12.2355 5.13754C12.0891 4.9911 11.8517 4.9911 11.7052 5.13754L5.10989 11.7329C4.96345 11.8793 4.96345 12.1167 5.10989 12.2632L11.7052 18.8585C11.8517 19.0049 12.0891 19.0049 12.2355 18.8585Z" fill="#464646"/>
</svg>
