<svg width="21" height="22" viewBox="0 0 21 22" fill="none" xmlns="http://www.w3.org/2000/svg">
<path d="M10.5 0.666656C4.79306 0.666656 0.166687 5.29303 0.166687 11C0.166687 16.7069 4.79306 21.3333 10.5 21.3333C16.207 21.3333 20.8334 16.7069 20.8334 11C20.8334 5.29303 16.207 0.666656 10.5 0.666656ZM10.5 20C5.55569 20 1.50002 15.9977 1.50002 11C1.50002 6.0557 5.50231 1.99999 10.5 1.99999C15.4444 1.99999 19.5 6.00228 19.5 11C19.5 15.9443 15.4977 20 10.5 20ZM16.4013 8.54328L8.88127 16.0029C8.68523 16.1974 8.36865 16.1962 8.17419 16.0001L4.59594 12.3929C4.40148 12.1969 4.40273 11.8803 4.59877 11.6859L4.95377 11.3337C5.14981 11.1393 5.4664 11.1405 5.66085 11.3366L8.53485 14.2338L15.3449 7.47836C15.5409 7.28391 15.8575 7.28516 16.052 7.4812L16.4041 7.8362C16.5986 8.03224 16.5973 8.34882 16.4013 8.54328Z" fill="#464646"/>
</svg>
