<svg width="25" height="16" viewBox="0 0 25 16" fill="none" xmlns="http://www.w3.org/2000/svg">
<path d="M12.5001 9.33333C13.2073 9.33333 13.8856 9.05238 14.3857 8.55228C14.8858 8.05219 15.1668 7.37391 15.1668 6.66667C15.1668 5.95942 14.8858 5.28115 14.3857 4.78105C13.8856 4.28095 13.2073 4 12.5001 4C12.4584 4 12.4218 4.01 12.3813 4.01208C12.5099 4.36597 12.5347 4.74916 12.4531 5.1167C12.3715 5.48423 12.1867 5.82086 11.9205 6.08708C11.6543 6.3533 11.3177 6.53807 10.9501 6.61969C10.5826 6.70132 10.1994 6.67642 9.84552 6.54792C9.84552 6.58958 9.83343 6.62625 9.83343 6.66667C9.83343 7.01686 9.90241 7.36362 10.0364 7.68716C10.1704 8.01069 10.3669 8.30466 10.6145 8.55228C11.1146 9.05238 11.7929 9.33333 12.5001 9.33333ZM24.3551 7.39167C22.0955 2.98292 17.6222 0 12.5001 0C7.37802 0 2.90343 2.985 0.645099 7.39208C0.549783 7.58063 0.500122 7.78894 0.500122 8.00021C0.500122 8.21148 0.549783 8.41979 0.645099 8.60833C2.90468 13.0171 7.37802 16 12.5001 16C17.6222 16 22.0968 13.015 24.3551 8.60792C24.4504 8.41937 24.5001 8.21106 24.5001 7.99979C24.5001 7.78852 24.4504 7.58021 24.3551 7.39167ZM12.5001 1.33333C13.5549 1.33333 14.5861 1.64613 15.4631 2.23216C16.3402 2.8182 17.0238 3.65115 17.4275 4.62569C17.8311 5.60023 17.9367 6.67258 17.731 7.70715C17.5252 8.74171 17.0172 9.69202 16.2713 10.4379C15.5255 11.1838 14.5751 11.6917 13.5406 11.8975C12.506 12.1033 11.4337 11.9977 10.4591 11.594C9.48458 11.1904 8.65163 10.5068 8.06559 9.62971C7.47956 8.75265 7.16677 7.7215 7.16677 6.66667C7.16831 5.25265 7.73071 3.897 8.73057 2.89714C9.73043 1.89728 11.0861 1.33488 12.5001 1.33333ZM12.5001 14.6667C8.02677 14.6667 3.93927 12.1121 1.83343 8C3.01778 5.67496 4.9118 3.78751 7.24093 2.61125C6.37135 3.73708 5.83343 5.13208 5.83343 6.66667C5.83343 8.43478 6.53581 10.1305 7.78605 11.3807C9.0363 12.631 10.732 13.3333 12.5001 13.3333C14.2682 13.3333 15.9639 12.631 17.2141 11.3807C18.4644 10.1305 19.1668 8.43478 19.1668 6.66667C19.1668 5.13208 18.6288 3.73708 17.7593 2.61125C20.0884 3.78751 21.9824 5.67496 23.1668 8C21.0613 12.1121 16.9734 14.6667 12.5001 14.6667Z" fill="#464646"/>
</svg>
